<svg width="142" height="48" viewBox="0 0 142 48" fill="none" xmlns="http://www.w3.org/2000/svg">
<g opacity="0.45">
<path opacity="0.45" fill-rule="evenodd" clip-rule="evenodd" d="M7.1935 6.80438C7.24877 6.47721 7.55805 6.25818 7.88428 6.31516L7.98222 6.33226C8.30846 6.38924 8.52811 6.70066 8.47284 7.02782C8.41757 7.35499 8.10829 7.57403 7.78206 7.51705L7.68412 7.49994C7.35788 7.44296 7.13822 7.13155 7.1935 6.80438ZM11.209 7.5057C11.2643 7.17853 11.5735 6.9595 11.8998 7.01648L12.0956 7.05069C12.4219 7.10767 12.6415 7.41908 12.5863 7.74625C12.531 8.07342 12.2217 8.29245 11.8955 8.23547L11.6996 8.20126C11.3734 8.14428 11.1537 7.83287 11.209 7.5057ZM15.3224 8.22413C15.3777 7.89696 15.687 7.67793 16.0132 7.73491L16.2091 7.76912C16.5353 7.82609 16.755 8.13751 16.6997 8.46468C16.6444 8.79185 16.3351 9.01088 16.0089 8.9539L15.813 8.91969C15.4868 8.86271 15.2671 8.5513 15.3224 8.22413ZM19.4358 8.94255C19.4911 8.61539 19.8004 8.39635 20.1266 8.45333L20.3225 8.48754C20.6487 8.54452 20.8684 8.85593 20.8131 9.1831C20.7578 9.51027 20.4486 9.7293 20.1223 9.67233L19.9265 9.63812C19.6002 9.58114 19.3806 9.26972 19.4358 8.94255ZM23.5493 9.66098C23.6045 9.33381 23.9138 9.11478 24.24 9.17176L24.4359 9.20597C24.7622 9.26295 24.9818 9.57436 24.9265 9.90153C24.8713 10.2287 24.562 10.4477 24.2358 10.3908L24.0399 10.3565C23.7136 10.2996 23.494 9.98815 23.5493 9.66098ZM27.6627 10.3794C27.718 10.0522 28.0272 9.8332 28.3535 9.89018L28.5493 9.92439C28.8756 9.98137 29.0952 10.2928 29.04 10.62C28.9847 10.9471 28.6754 11.1662 28.3492 11.1092L28.1533 11.075C27.8271 11.018 27.6074 10.7066 27.6627 10.3794ZM31.7761 11.0978C31.8314 10.7707 32.1407 10.5516 32.4669 10.6086L32.6628 10.6428C32.989 10.6998 33.2087 11.0112 33.1534 11.3384C33.0981 11.6655 32.7888 11.8846 32.4626 11.8276L32.2667 11.7934C31.9405 11.7364 31.7208 11.425 31.7761 11.0978ZM35.8895 11.8163C35.9448 11.4891 36.2541 11.2701 36.5803 11.327L36.7762 11.3612C37.1024 11.4182 37.3221 11.7296 37.2668 12.0568C37.2116 12.384 36.9023 12.603 36.576 12.546L36.3802 12.5118C36.0539 12.4548 35.8343 12.1434 35.8895 11.8163ZM40.003 12.5347C40.0582 12.2075 40.3675 11.9885 40.6938 12.0455L40.8896 12.0797C41.2159 12.1367 41.4355 12.4481 41.3803 12.7752C41.325 13.1024 41.0157 13.3214 40.6895 13.2645L40.4936 13.2302C40.1674 13.1733 39.9477 12.8619 40.003 12.5347ZM44.1164 13.2531C44.1717 12.9259 44.4809 12.7069 44.8072 12.7639L44.9051 12.781C45.2314 12.838 45.451 13.1494 45.3957 13.4766C45.3405 13.8037 45.0312 14.0228 44.705 13.9658L44.607 13.9487C44.2808 13.8917 44.0611 13.5803 44.1164 13.2531Z" fill="#0B907B"/>
</g>
<g opacity="0.45">
<path opacity="0.45" fill-rule="evenodd" clip-rule="evenodd" d="M7.27251 5.39188C7.2933 5.06042 7.57793 4.80912 7.90825 4.8306L7.98901 4.83585C8.31933 4.85732 8.57026 5.14343 8.54947 5.47489C8.52868 5.80635 8.24405 6.05765 7.91373 6.03617L7.83298 6.03092C7.50265 6.00945 7.25172 5.72334 7.27251 5.39188ZM10.5833 5.60709C10.6041 5.27564 10.8887 5.02434 11.2191 5.04582L11.3806 5.05631C11.7109 5.07779 11.9618 5.3639 11.941 5.69535C11.9202 6.02682 11.6356 6.27811 11.3053 6.25664L11.1438 6.24614C10.8135 6.22467 10.5625 5.93856 10.5833 5.60709ZM13.9749 5.82755C13.9957 5.49611 14.2803 5.24481 14.6106 5.26628L14.7721 5.27678C15.1024 5.29826 15.3534 5.58437 15.3326 5.91581C15.3118 6.24729 15.0272 6.49858 14.6968 6.47711L14.5353 6.46661C14.205 6.44514 13.9541 6.15903 13.9749 5.82755ZM17.3664 6.04801C17.3872 5.71658 17.6719 5.46528 18.0022 5.48675L18.1637 5.49725C18.494 5.51872 18.7449 5.80483 18.7241 6.13627C18.7034 6.46776 18.4187 6.71905 18.0884 6.69758L17.9269 6.68708C17.5966 6.66561 17.3456 6.3795 17.3664 6.04801ZM20.758 6.26847C20.7788 5.93705 21.0634 5.68575 21.3937 5.70722L21.5552 5.71772C21.8856 5.73919 22.1365 6.0253 22.1157 6.35672C22.0949 6.68823 21.8103 6.93952 21.48 6.91805L21.3185 6.90755C20.9881 6.88608 20.7372 6.59997 20.758 6.26847ZM24.1496 6.48893C24.1703 6.15751 24.455 5.90622 24.7853 5.92769L24.9468 5.93819C25.2771 5.95966 25.528 6.24577 25.5073 6.57718C25.4865 6.90869 25.2018 7.15999 24.8715 7.13852L24.71 7.12802C24.3797 7.10655 24.1288 6.82044 24.1496 6.48893ZM27.5411 6.70939C27.5619 6.37798 27.8465 6.12669 28.1768 6.14816L28.3384 6.15866C28.6687 6.18013 28.9196 6.46624 28.8988 6.79764C28.878 7.12916 28.5934 7.38046 28.2631 7.35899L28.1016 7.34849C27.7712 7.32702 27.5203 7.04091 27.5411 6.70939ZM30.9327 6.92985C30.9534 6.59845 31.2381 6.34716 31.5684 6.36863L31.7299 6.37913C32.0602 6.4006 32.3112 6.68671 32.2904 7.0181C32.2696 7.34963 31.9849 7.60093 31.6546 7.57946L31.4931 7.56896C31.1628 7.54748 30.9119 7.26137 30.9327 6.92985ZM34.3242 7.15031C34.345 6.81892 34.6296 6.56763 34.96 6.5891L35.1215 6.5996C35.4518 6.62107 35.7027 6.90718 35.6819 7.23856C35.6611 7.5701 35.3765 7.8214 35.0462 7.79992L34.8847 7.78943C34.5544 7.76795 34.3034 7.48184 34.3242 7.15031ZM37.7158 7.37077C37.7366 7.03939 38.0212 6.78809 38.3515 6.80957L38.513 6.82007C38.8433 6.84154 39.0943 7.12765 39.0735 7.45902C39.0527 7.79057 38.7681 8.04187 38.4377 8.02039L38.2762 8.00989C37.9459 7.98842 37.695 7.70231 37.7158 7.37077ZM41.1073 7.59123C41.1281 7.25986 41.4128 7.00856 41.7431 7.03004L41.9046 7.04053C42.2349 7.06201 42.4858 7.34812 42.465 7.67948C42.4443 8.01104 42.1596 8.26233 41.8293 8.24086L41.6678 8.23036C41.3375 8.20889 41.0865 7.92278 41.1073 7.59123ZM44.4989 7.81169C44.5197 7.48033 44.8043 7.22903 45.1346 7.2505L45.2961 7.261C45.6265 7.28248 45.8774 7.56859 45.8566 7.89994C45.8358 8.23151 45.5512 8.4828 45.2209 8.46133L45.0593 8.45083C44.729 8.42936 44.4781 8.14325 44.4989 7.81169ZM47.8905 8.03215C47.9112 7.7008 48.1959 7.4495 48.5262 7.47097L48.6877 7.48147C49.018 7.50295 49.2689 7.78905 49.2482 8.1204C49.2274 8.45198 48.9427 8.70327 48.6124 8.6818L48.4509 8.6713C48.1206 8.64983 47.8697 8.36372 47.8905 8.03215ZM51.282 8.2526C51.3028 7.92127 51.5874 7.66997 51.9177 7.69144L52.0792 7.70194C52.4096 7.72341 52.6605 8.00952 52.6397 8.34086C52.6189 8.67245 52.3343 8.92374 52.004 8.90227L51.8425 8.89177C51.5121 8.8703 51.2612 8.58419 51.282 8.2526ZM54.6736 8.47306C54.6943 8.14173 54.979 7.89044 55.3093 7.91191L55.4708 7.92241C55.8011 7.94388 56.0521 8.22999 56.0313 8.56132C56.0105 8.89292 55.7258 9.14421 55.3955 9.12274L55.234 9.11224C54.9037 9.09077 54.6528 8.80466 54.6736 8.47306ZM58.0651 8.69352C58.0859 8.3622 58.3705 8.11091 58.7009 8.13238L58.8624 8.14288C59.1927 8.16435 59.4436 8.45046 59.4228 8.78178C59.402 9.11338 59.1174 9.36468 58.7871 9.34321L58.6256 9.33271C58.2953 9.31124 58.0443 9.02513 58.0651 8.69352ZM61.4567 8.91398C61.4775 8.58267 61.7621 8.33138 62.0924 8.35285L62.2539 8.36335C62.5842 8.38482 62.8352 8.67093 62.8144 9.00224C62.7936 9.33385 62.509 9.58515 62.1786 9.56368L62.0171 9.55318C61.6868 9.53171 61.4359 9.2456 61.4567 8.91398ZM64.8482 9.13444C64.869 8.80314 65.1537 8.55185 65.484 8.57332L65.6455 8.58382C65.9758 8.60529 66.2267 8.8914 66.206 9.2227C66.1852 9.55432 65.9005 9.80562 65.5702 9.78415L65.4087 9.77365C65.0784 9.75217 64.8275 9.46606 64.8482 9.13444ZM68.2398 9.3549C68.2606 9.02361 68.5452 8.77232 68.8755 8.79379L68.9563 8.79904C69.2866 8.82051 69.5375 9.10662 69.5168 9.43791C69.496 9.76954 69.2113 10.0208 68.881 9.99937L68.8003 9.99412C68.4699 9.97264 68.219 9.68653 68.2398 9.3549Z" fill="#0B907B"/>
</g>
<g opacity="0.45">
<path opacity="0.45" fill-rule="evenodd" clip-rule="evenodd" d="M36.6458 41.4814C36.5194 41.1743 36.6644 40.8203 36.9698 40.6905L37.0515 40.6558C37.3569 40.526 37.7071 40.6697 37.8335 40.9767C37.96 41.2837 37.815 41.6378 37.5096 41.7676L37.4278 41.8023C37.1224 41.9321 36.7723 41.7884 36.6458 41.4814ZM39.9961 40.0578C39.8696 39.7508 40.0146 39.3967 40.32 39.2669L40.4835 39.1974C40.7889 39.0677 41.139 39.2114 41.2655 39.5184C41.3919 39.8254 41.2469 40.1795 40.9415 40.3092L40.7781 40.3787C40.4726 40.5085 40.1225 40.3648 39.9961 40.0578ZM43.428 38.5995C43.3015 38.2924 43.4466 37.9384 43.752 37.8086L43.9154 37.7391C44.2208 37.6094 44.5709 37.753 44.6974 38.0601C44.8239 38.3671 44.6788 38.7212 44.3734 38.8509L44.21 38.9204C43.9046 39.0502 43.5545 38.9065 43.428 38.5995ZM46.8599 37.1411C46.7334 36.8341 46.8785 36.48 47.1839 36.3503L47.3473 36.2808C47.6527 36.1511 48.0028 36.2947 48.1293 36.6017C48.2558 36.9088 48.1107 37.2628 47.8053 37.3926L47.6419 37.4621C47.3365 37.5918 46.9864 37.4482 46.8599 37.1411ZM50.2918 35.6828C50.1654 35.3758 50.3104 35.0217 50.6158 34.892L50.7793 34.8225C51.0847 34.6927 51.4348 34.8364 51.5612 35.1434C51.6877 35.4505 51.5427 35.8045 51.2373 35.9343L51.0738 36.0038C50.7684 36.1335 50.4183 35.9899 50.2918 35.6828ZM53.7238 34.2245C53.5973 33.9175 53.7423 33.5634 54.0478 33.4337L54.2112 33.3642C54.5166 33.2344 54.8667 33.3781 54.9932 33.6851C55.1197 33.9921 54.9746 34.3462 54.6692 34.476L54.5058 34.5454C54.2004 34.6752 53.8502 34.5315 53.7238 34.2245ZM57.1557 32.7662C57.0292 32.4592 57.1743 32.1051 57.4797 31.9753L57.5614 31.9406C57.8668 31.8108 58.2169 31.9545 58.3434 32.2615C58.4699 32.5686 58.3248 32.9226 58.0194 33.0524L57.9377 33.0871C57.6323 33.2169 57.2822 33.0732 57.1557 32.7662Z" fill="#0B907B"/>
</g>
<g opacity="0.45">
<path opacity="0.45" fill-rule="evenodd" clip-rule="evenodd" d="M70.7609 13.2578C71.0466 13.4316 71.1404 13.8059 70.9704 14.094L70.9351 14.1538C70.7651 14.4418 70.3957 14.5344 70.11 14.3607C69.8243 14.1869 69.7305 13.8126 69.9005 13.5245L69.9358 13.4647C70.1058 13.1767 70.4752 13.0841 70.7609 13.2578ZM69.3137 15.7099C69.5994 15.8836 69.6932 16.258 69.5232 16.546L69.4526 16.6656C69.2826 16.9537 68.9131 17.0463 68.6274 16.8725C68.3417 16.6988 68.248 16.3244 68.418 16.0364L68.4885 15.9168C68.6585 15.6287 69.028 15.5361 69.3137 15.7099ZM67.8312 18.2217C68.1169 18.3955 68.2106 18.7698 68.0406 19.0579L67.9701 19.1775C67.8001 19.4655 67.4306 19.5581 67.1449 19.3844C66.8592 19.2106 66.7654 18.8363 66.9354 18.5482L67.006 18.4286C67.176 18.1406 67.5455 18.0479 67.8312 18.2217ZM66.3486 20.7336C66.6343 20.9073 66.7281 21.2817 66.5581 21.5697L66.4875 21.6893C66.3175 21.9773 65.9481 22.07 65.6624 21.8962C65.3767 21.7225 65.2829 21.3481 65.4529 21.0601L65.5235 20.9405C65.6935 20.6524 66.0629 20.5598 66.3486 20.7336ZM64.8661 23.2454C65.1518 23.4192 65.2456 23.7935 65.0756 24.0816L65.005 24.2012C64.835 24.4892 64.4656 24.5818 64.1799 24.4081C63.8942 24.2343 63.8004 23.8599 63.9704 23.5719L64.041 23.4523C64.211 23.1643 64.5804 23.0716 64.8661 23.2454ZM63.3836 25.7572C63.6693 25.931 63.7631 26.3054 63.5931 26.5934L63.5225 26.713C63.3525 27.001 62.9831 27.0937 62.6974 26.9199C62.4117 26.7462 62.3179 26.3718 62.4879 26.0838L62.5585 25.9642C62.7285 25.6761 63.0979 25.5835 63.3836 25.7572ZM61.9011 28.2691C62.1868 28.4429 62.2806 28.8172 62.1106 29.1052L62.0753 29.1651C61.9053 29.4531 61.5359 29.5457 61.2502 29.372C60.9645 29.1982 60.8707 28.8238 61.0407 28.5358L61.076 28.476C61.246 28.188 61.6154 28.0953 61.9011 28.2691Z" fill="#0B907B"/>
</g>
<g opacity="0.45">
<path opacity="0.45" fill-rule="evenodd" clip-rule="evenodd" d="M7.06282 7.79505C7.19402 7.49017 7.54629 7.35205 7.84963 7.48657L7.9271 7.52092C8.23044 7.65543 8.36999 8.01163 8.23878 8.31651C8.10758 8.62139 7.75531 8.7595 7.45197 8.62499L7.3745 8.59063C7.07116 8.45612 6.93162 8.09993 7.06282 7.79505ZM10.2391 9.20349C10.3703 8.89861 10.7225 8.7605 11.0259 8.89501L11.1808 8.96372C11.4841 9.09823 11.6237 9.45442 11.4925 9.7593C11.3613 10.0642 11.009 10.2023 10.7057 10.0678L10.5507 9.99908C10.2474 9.86457 10.1078 9.50837 10.2391 9.20349ZM13.4928 10.6463C13.624 10.3414 13.9762 10.2033 14.2796 10.3378L14.4345 10.4065C14.7378 10.541 14.8774 10.8972 14.7462 11.2021C14.615 11.507 14.2627 11.6451 13.9594 11.5106L13.8044 11.4419C13.5011 11.3074 13.3616 10.9512 13.4928 10.6463ZM16.7465 12.0891C16.8777 11.7842 17.2299 11.6461 17.5333 11.7806L17.6882 11.8493C17.9916 11.9838 18.1311 12.34 17.9999 12.6449C17.8687 12.9498 17.5164 13.0879 17.2131 12.9534L17.0581 12.8847C16.7548 12.7502 16.6153 12.394 16.7465 12.0891ZM20.0002 13.5319C20.1314 13.227 20.4836 13.0889 20.787 13.2234L20.9419 13.2921C21.2453 13.4266 21.3848 13.7828 21.2536 14.0877C21.1224 14.3926 20.7701 14.5307 20.4668 14.3962L20.3118 14.3275C20.0085 14.193 19.869 13.8368 20.0002 13.5319ZM23.2539 14.9747C23.3851 14.6698 23.7373 14.5317 24.0407 14.6662L24.1956 14.7349C24.499 14.8694 24.6385 15.2256 24.5073 15.5305C24.3761 15.8354 24.0238 15.9735 23.7205 15.839L23.5655 15.7703C23.2622 15.6358 23.1227 15.2796 23.2539 14.9747ZM26.5076 16.4175C26.6388 16.1126 26.991 15.9745 27.2944 16.109L27.4493 16.1777C27.7527 16.3122 27.8922 16.6684 27.761 16.9733C27.6298 17.2782 27.2775 17.4163 26.9742 17.2818L26.8192 17.2131C26.5159 17.0786 26.3764 16.7224 26.5076 16.4175ZM29.7613 17.8603C29.8925 17.5554 30.2447 17.4173 30.5481 17.5518L30.703 17.6205C31.0064 17.755 31.1459 18.1112 31.0147 18.4161C30.8835 18.721 30.5312 18.8591 30.2279 18.7246L30.073 18.6559C29.7696 18.5214 29.6301 18.1652 29.7613 17.8603ZM33.015 19.3031C33.1462 18.9982 33.4984 18.8601 33.8018 18.9946L33.9567 19.0633C34.2601 19.1978 34.3996 19.554 34.2684 19.8589C34.1372 20.1638 33.7849 20.3019 33.4816 20.1674L33.3267 20.0987C33.0233 19.9641 32.8838 19.6079 33.015 19.3031ZM36.2687 20.7459C36.3999 20.441 36.7521 20.3029 37.0555 20.4374L37.2104 20.5061C37.5138 20.6406 37.6533 20.9968 37.5221 21.3017C37.3909 21.6066 37.0386 21.7447 36.7353 21.6102L36.5804 21.5415C36.277 21.4069 36.1375 21.0507 36.2687 20.7459ZM39.5224 22.1887C39.6536 21.8838 40.0058 21.7457 40.3092 21.8802L40.4641 21.9489C40.7675 22.0834 40.907 22.4396 40.7758 22.7445C40.6446 23.0494 40.2923 23.1875 39.989 23.053L39.8341 22.9843C39.5307 22.8497 39.3912 22.4935 39.5224 22.1887ZM42.7761 23.6315C42.9073 23.3266 43.2595 23.1885 43.5629 23.323L43.7178 23.3917C44.0212 23.5262 44.1607 23.8824 44.0295 24.1873C43.8983 24.4922 43.546 24.6303 43.2427 24.4958L43.0878 24.4271C42.7844 24.2925 42.6449 23.9363 42.7761 23.6315ZM46.0298 25.0743C46.161 24.7694 46.5133 24.6313 46.8166 24.7658L46.9715 24.8345C47.2749 24.969 47.4144 25.3252 47.2832 25.6301C47.152 25.935 46.7997 26.0731 46.4964 25.9386L46.3415 25.8698C46.0381 25.7353 45.8986 25.3791 46.0298 25.0743ZM49.2835 26.5171C49.4147 26.2122 49.767 26.0741 50.0703 26.2086L50.2252 26.2773C50.5286 26.4118 50.6681 26.768 50.5369 27.0729C50.4057 27.3777 50.0534 27.5159 49.7501 27.3813L49.5952 27.3126C49.2918 27.1781 49.1523 26.8219 49.2835 26.5171ZM52.5372 27.9599C52.6684 27.655 53.0207 27.5169 53.324 27.6514L53.4789 27.7201C53.7823 27.8546 53.9218 28.2108 53.7906 28.5157C53.6594 28.8205 53.3071 28.9587 53.0038 28.8241L52.8489 28.7554C52.5455 28.6209 52.406 28.2647 52.5372 27.9599ZM55.7909 29.4026C55.9221 29.0978 56.2744 28.9597 56.5777 29.0942L56.6552 29.1285C56.9585 29.263 57.0981 29.6192 56.9669 29.9241C56.8357 30.229 56.4834 30.3671 56.18 30.2326L56.1026 30.1982C55.7992 30.0637 55.6597 29.7075 55.7909 29.4026Z" fill="#0B907B"/>
</g>
<path fill-rule="evenodd" clip-rule="evenodd" d="M35.6082 39.1718C35.3099 39.0264 35.1842 38.6631 35.3275 38.3603L45.7726 16.2941C45.9159 15.9914 46.2739 15.8638 46.5723 16.0093C46.8707 16.1547 46.9964 16.518 46.8531 16.8207L36.4079 38.8869C36.2646 39.1897 35.9066 39.3172 35.6082 39.1718Z" fill="#0B907B"/>
<path fill-rule="evenodd" clip-rule="evenodd" d="M57.9672 29.124C57.7 29.3221 57.325 29.2629 57.1298 28.9917L48.3115 16.7424C48.1162 16.4712 48.1746 16.0908 48.4419 15.8926C48.7092 15.6945 49.0841 15.7538 49.2793 16.025L58.0977 28.2742C58.2929 28.5454 58.2345 28.9259 57.9672 29.124Z" fill="#0B907B"/>
<path fill-rule="evenodd" clip-rule="evenodd" d="M69.3446 11.4317C69.3695 11.7666 69.1222 12.0586 68.7921 12.0839L50.1251 13.5151C49.795 13.5404 49.5073 13.2894 49.4823 12.9545C49.4574 12.6196 49.7047 12.3276 50.0348 12.3023L68.7018 10.8711C69.0319 10.8458 69.3196 11.0968 69.3446 11.4317Z" fill="#0B907B"/>
<path fill-rule="evenodd" clip-rule="evenodd" d="M5.68588 8.62214C5.93844 8.40507 6.31661 8.43685 6.53054 8.69313L32.1297 39.3599C32.3436 39.6162 32.3123 39.9999 32.0597 40.217C31.8071 40.4341 31.429 40.4023 31.215 40.146L5.61592 9.47923C5.402 9.22295 5.43332 8.83922 5.68588 8.62214Z" fill="#0B907B"/>
<path d="M4.65533 8.55256C3.56544 8.55256 2.68155 7.65601 2.68155 6.5494C2.68155 5.44331 3.56544 4.54642 4.65533 4.54642C5.74556 4.54642 6.62912 5.44331 6.62912 6.5494C6.62912 7.65601 5.74556 8.55256 4.65533 8.55256ZM4.65533 3.4683C2.97812 3.4683 1.61871 4.84822 1.61871 6.5494C1.61871 8.25163 2.97812 9.63137 4.65533 9.63137C6.33255 9.63137 7.69195 8.25163 7.69195 6.5494C7.69195 4.84822 6.33255 3.4683 4.65533 3.4683Z" fill="#0B907B"/>
<path fill-rule="evenodd" clip-rule="evenodd" d="M4.65535 9.5445C3.02544 9.5445 1.70434 8.20367 1.70434 6.5494C1.70434 4.89619 3.02542 3.55517 4.65535 3.55517C6.28527 3.55517 7.60635 4.89619 7.60635 6.5494C7.60635 8.20367 6.28526 9.5445 4.65535 9.5445ZM1.53311 6.5494C1.53311 8.29959 2.93083 9.71825 4.65535 9.71825C6.37986 9.71825 7.77758 8.29959 7.77758 6.5494C7.77758 4.80024 6.37985 3.38142 4.65535 3.38142C2.93084 3.38142 1.53311 4.80024 1.53311 6.5494ZM2.59595 6.5494C2.59595 7.70399 3.51817 8.63943 4.65535 8.63943C5.79287 8.63943 6.71475 7.70398 6.71475 6.5494C6.71475 5.39534 5.79288 4.45954 4.65535 4.45954C3.51817 4.45954 2.59595 5.39533 2.59595 6.5494ZM4.65535 8.46569C3.61274 8.46569 2.76718 7.60803 2.76718 6.5494C2.76718 5.49128 3.61275 4.63329 4.65535 4.63329C5.69828 4.63329 6.54352 5.49127 6.54352 6.5494C6.54352 7.60804 5.69828 8.46569 4.65535 8.46569Z" fill="#0B907B"/>
<path d="M47.2351 15.85C46.1449 15.85 45.261 14.9535 45.261 13.8469C45.261 12.7408 46.1449 11.8439 47.2351 11.8439C48.325 11.8439 49.2086 12.7408 49.2086 13.8469C49.2086 14.9535 48.325 15.85 47.2351 15.85ZM47.2351 10.7658C45.5576 10.7658 44.1982 12.1457 44.1982 13.8469C44.1982 15.5491 45.5576 16.9288 47.2351 16.9288C48.912 16.9288 50.2714 15.5491 50.2714 13.8469C50.2714 12.1457 48.912 10.7658 47.2351 10.7658Z" fill="#0B907B"/>
<path fill-rule="evenodd" clip-rule="evenodd" d="M47.2351 16.842C45.6049 16.842 44.2838 15.5011 44.2838 13.8469C44.2838 12.1937 45.6049 10.8526 47.2351 10.8526C48.8647 10.8526 50.1858 12.1937 50.1858 13.8469C50.1858 15.5011 48.8647 16.842 47.2351 16.842ZM44.1125 13.8469C44.1125 15.5971 45.5103 17.0157 47.2351 17.0157C48.9593 17.0157 50.357 15.597 50.357 13.8469C50.357 12.0977 48.9593 10.6789 47.2351 10.6789C45.5103 10.6789 44.1125 12.0977 44.1125 13.8469ZM45.1754 13.8469C45.1754 15.0015 46.0976 15.9369 47.2351 15.9369C48.3723 15.9369 49.2942 15.0014 49.2942 13.8469C49.2942 12.6928 48.3723 11.757 47.2351 11.757C46.0976 11.757 45.1754 12.6928 45.1754 13.8469ZM47.2351 15.7632C46.1922 15.7632 45.3466 14.9055 45.3466 13.8469C45.3466 12.7888 46.1922 11.9308 47.2351 11.9308C48.2777 11.9308 49.123 12.7887 49.123 13.8469C49.123 14.9055 48.2777 15.7632 47.2351 15.7632Z" fill="#0B907B"/>
<path d="M59.5637 32.8775C58.4734 32.8775 57.5895 31.981 57.5895 30.8743C57.5895 29.7683 58.4734 28.8714 59.5637 28.8714C60.6535 28.8714 61.5371 29.7683 61.5371 30.8743C61.5371 31.981 60.6535 32.8775 59.5637 32.8775ZM59.5637 27.7932C57.8861 27.7932 56.5267 29.1732 56.5267 30.8743C56.5267 32.5766 57.8861 33.9563 59.5637 33.9563C61.2405 33.9563 62.5999 32.5766 62.5999 30.8743C62.5999 29.1732 61.2405 27.7932 59.5637 27.7932Z" fill="#0B907B"/>
<path fill-rule="evenodd" clip-rule="evenodd" d="M59.5636 33.8694C57.9334 33.8694 56.6123 32.5286 56.6123 30.8743C56.6123 29.2211 57.9334 27.8801 59.5636 27.8801C61.1932 27.8801 62.5143 29.2211 62.5143 30.8743C62.5143 32.5286 61.1932 33.8694 59.5636 33.8694ZM56.4411 30.8743C56.4411 32.6245 57.8388 34.0432 59.5636 34.0432C61.2878 34.0432 62.6855 32.6245 62.6855 30.8743C62.6855 29.1252 61.2878 27.7064 59.5636 27.7064C57.8388 27.7064 56.4411 29.1252 56.4411 30.8743ZM57.5039 30.8743C57.5039 32.029 58.4261 32.9644 59.5636 32.9644C60.7008 32.9644 61.6227 32.0289 61.6227 30.8743C61.6227 29.7203 60.7008 28.7845 59.5636 28.7845C58.4261 28.7845 57.5039 29.7203 57.5039 30.8743ZM59.5636 32.7906C58.5207 32.7906 57.6751 31.933 57.6751 30.8743C57.6751 29.8162 58.5207 28.9582 59.5636 28.9582C60.6062 28.9582 61.4515 29.8162 61.4515 30.8743C61.4515 31.933 60.6062 32.7906 59.5636 32.7906Z" fill="#0B907B"/>
<path d="M71.3968 12.6119C70.3066 12.6119 69.4227 11.7153 69.4227 10.6087C69.4227 9.50264 70.3066 8.60575 71.3968 8.60575C72.4867 8.60575 73.3702 9.50264 73.3702 10.6087C73.3702 11.7153 72.4867 12.6119 71.3968 12.6119ZM71.3968 7.52763C69.7192 7.52763 68.3598 8.90755 68.3598 10.6087C68.3598 12.311 69.7192 13.6907 71.3968 13.6907C73.0737 13.6907 74.4331 12.311 74.4331 10.6087C74.4331 8.90755 73.0737 7.52763 71.3968 7.52763Z" fill="#0B907B"/>
<path fill-rule="evenodd" clip-rule="evenodd" d="M71.3968 13.6038C69.7665 13.6038 68.4455 12.263 68.4455 10.6087C68.4455 8.95553 69.7665 7.61451 71.3968 7.61451C73.0264 7.61451 74.3475 8.95552 74.3475 10.6087C74.3475 12.263 73.0264 13.6038 71.3968 13.6038ZM68.2742 10.6087C68.2742 12.3589 69.672 13.7776 71.3968 13.7776C73.121 13.7776 74.5187 12.3589 74.5187 10.6087C74.5187 8.85958 73.121 7.44076 71.3968 7.44076C69.672 7.44076 68.2742 8.85957 68.2742 10.6087ZM69.3371 10.6087C69.3371 11.7633 70.2593 12.6988 71.3968 12.6988C72.534 12.6988 73.4559 11.7633 73.4559 10.6087C73.4559 9.45469 72.534 8.51887 71.3968 8.51887C70.2593 8.51887 69.3371 9.45466 69.3371 10.6087ZM71.3968 12.525C70.3539 12.525 69.5083 11.6674 69.5083 10.6087C69.5083 9.55063 70.3539 8.69262 71.3968 8.69262C72.4394 8.69262 73.2846 9.5506 73.2846 10.6087C73.2846 11.6674 72.4394 12.525 71.3968 12.525Z" fill="#0B907B"/>
<path d="M34.1644 43.2445C33.0742 43.2445 32.1903 42.3479 32.1903 41.2413C32.1903 40.1352 33.0742 39.2383 34.1644 39.2383C35.2543 39.2383 36.1378 40.1352 36.1378 41.2413C36.1378 42.3479 35.2543 43.2445 34.1644 43.2445ZM34.1644 38.1602C32.4872 38.1602 31.1274 39.5401 31.1274 41.2413C31.1274 42.9436 32.4872 44.3233 34.1644 44.3233C35.8413 44.3233 37.201 42.9436 37.201 41.2413C37.201 39.5401 35.8413 38.1602 34.1644 38.1602Z" fill="#0B907B"/>
<path fill-rule="evenodd" clip-rule="evenodd" d="M34.1644 44.2364C32.5345 44.2364 31.213 42.8956 31.213 41.2413C31.213 39.5881 32.5345 38.2471 34.1644 38.2471C35.794 38.2471 37.1154 39.5881 37.1154 41.2413C37.1154 42.8956 35.794 44.2364 34.1644 44.2364ZM31.0418 41.2413C31.0418 42.9915 32.4399 44.4102 34.1644 44.4102C35.8886 44.4102 37.2866 42.9915 37.2866 41.2413C37.2866 39.4922 35.8885 38.0733 34.1644 38.0733C32.4399 38.0733 31.0418 39.4922 31.0418 41.2413ZM32.1046 41.2413C32.1046 42.3959 33.0269 43.3314 34.1644 43.3314C35.3016 43.3314 36.2234 42.3959 36.2234 41.2413C36.2234 40.0873 35.3016 39.1515 34.1644 39.1515C33.0269 39.1515 32.1046 40.0873 32.1046 41.2413ZM34.1644 43.1576C33.1214 43.1576 32.2759 42.2999 32.2759 41.2413C32.2759 40.1832 33.1214 39.3252 34.1644 39.3252C35.207 39.3252 36.0522 40.1832 36.0522 41.2413C36.0522 42.3 35.207 43.1576 34.1644 43.1576Z" fill="#0B907B"/>
<path d="M79.2156 14.0683H80.8902C81.0704 14.0683 81.2168 14.1089 81.33 14.1895C81.4432 14.2701 81.5278 14.3744 81.5844 14.5024L84.2082 20.7803C84.2954 20.9842 84.379 21.2086 84.459 21.4531C84.5384 21.697 84.6142 21.9547 84.6864 22.225C84.8048 21.6797 84.9512 21.1981 85.1262 20.7803L87.7417 14.5024C87.7884 14.3934 87.8704 14.2938 87.9888 14.2037C88.1072 14.1136 88.2536 14.0683 88.4286 14.0683H90.1027L85.5967 24.3604H83.7216L79.2156 14.0683Z" fill="#0B907B"/>
<path d="M101.575 19.2144C101.575 19.9689 101.439 20.6675 101.167 21.3103C100.894 21.9536 100.511 22.51 100.017 22.9795C99.5234 23.4495 98.9294 23.8162 98.2346 24.0791C97.5404 24.3425 96.7714 24.4743 95.9276 24.4743C95.0839 24.4743 94.3138 24.3425 93.617 24.0791C92.9196 23.8162 92.323 23.4495 91.8266 22.9795C91.3302 22.51 90.946 21.9536 90.6734 21.3103C90.4002 20.6675 90.2642 19.9689 90.2642 19.2144C90.2642 18.4599 90.4002 17.7612 90.6734 17.1184C90.946 16.4751 91.3302 15.9187 91.8266 15.4492C92.323 14.9793 92.9196 14.6126 93.617 14.3496C94.3138 14.0862 95.0839 13.9545 95.9276 13.9545C96.7714 13.9545 97.5404 14.0873 98.2346 14.3528C98.9294 14.6189 99.5234 14.9851 100.017 15.4529C100.511 15.9203 100.894 16.4751 101.167 17.1184C101.439 17.7612 101.575 18.4599 101.575 19.2144ZM99.4461 19.2144C99.4461 18.6495 99.3651 18.1432 99.203 17.6948C99.041 17.2464 98.8084 16.8655 98.5047 16.5525C98.2014 16.239 97.8322 15.9993 97.3976 15.8333C96.963 15.6674 96.4728 15.5841 95.9276 15.5841C95.3824 15.5841 94.8912 15.6674 94.454 15.8333C94.0168 15.9993 93.645 16.239 93.3392 16.5525C93.0328 16.8655 92.7976 17.2464 92.633 17.6948C92.4684 18.1432 92.3858 18.6495 92.3858 19.2144C92.3858 19.7792 92.4684 20.2855 92.633 20.7339C92.7976 21.1823 93.0328 21.5622 93.3392 21.873C93.645 22.1839 94.0168 22.422 94.454 22.588C94.8912 22.754 95.3824 22.8372 95.9276 22.8372C96.4728 22.8372 96.963 22.754 97.3976 22.588C97.8322 22.422 98.2014 22.1839 98.5047 21.873C98.8084 21.5622 99.041 21.1823 99.203 20.7339C99.3651 20.2855 99.4461 19.7792 99.4461 19.2144Z" fill="#0B907B"/>
<path d="M107.61 20.3603V24.3604H105.535V20.3603L101.469 14.0683H103.297C103.477 14.0683 103.62 14.1089 103.725 14.1895C103.831 14.2701 103.919 14.3718 103.992 14.4956L106.036 17.933C106.154 18.1374 106.258 18.3308 106.345 18.5131C106.432 18.6959 106.512 18.8751 106.584 19.0505C106.651 18.8703 106.727 18.6891 106.812 18.5062C106.896 18.3234 106.998 18.1327 107.116 17.933L109.146 14.4956C109.202 14.3907 109.287 14.2938 109.4 14.2037C109.513 14.1136 109.658 14.0683 109.833 14.0683H111.669L107.61 20.3603Z" fill="#0B907B"/>
<path d="M121.278 24.3604H119.673C119.493 24.3604 119.345 24.3188 119.229 24.2361C119.114 24.1529 119.03 24.0496 118.979 23.9263L118.145 21.8267H113.523L112.69 23.9263C112.649 24.0354 112.568 24.1349 112.447 24.225C112.326 24.3151 112.178 24.3604 112.003 24.3604H110.391L114.773 14.0683H116.895L121.278 24.3604ZM114.056 20.4741H117.613L116.255 17.0504C116.193 16.8987 116.125 16.7196 116.05 16.513C115.976 16.307 115.903 16.0826 115.83 15.8407C115.758 16.0826 115.688 16.3081 115.618 16.5167C115.549 16.7254 115.48 16.9082 115.413 17.0647L114.056 20.4741Z" fill="#0B907B"/>
<path d="M127.192 22.951C127.66 22.951 128.068 22.912 128.414 22.8335C128.762 22.7556 129.093 22.6475 129.406 22.51V20.638H128.009C127.876 20.638 127.771 20.6038 127.693 20.5347C127.616 20.4657 127.577 20.3814 127.577 20.2818V19.2001H131.289V23.3641C131.006 23.5538 130.712 23.7187 130.405 23.8589C130.099 23.9985 129.773 24.1139 129.425 24.204C129.078 24.2941 128.707 24.3615 128.311 24.4068C127.914 24.4516 127.488 24.4743 127.03 24.4743C126.217 24.4743 125.468 24.3436 124.784 24.0828C124.1 23.822 123.509 23.4589 123.01 22.9937C122.511 22.529 122.121 21.9737 121.841 21.3282C121.56 20.6828 121.42 19.9783 121.42 19.2144C121.42 18.4409 121.556 17.7317 121.829 17.0863C122.102 16.4408 122.489 15.8855 122.99 15.4208C123.492 14.9556 124.1 14.5952 124.815 14.3386C125.53 14.0825 126.333 13.9545 127.223 13.9545C128.133 13.9545 128.921 14.0788 129.587 14.328C130.254 14.5773 130.818 14.9013 131.281 15.2996L130.679 16.1679C130.561 16.3434 130.404 16.4314 130.208 16.4314C130.085 16.4314 129.959 16.3934 129.83 16.3176C129.666 16.2275 129.498 16.1374 129.325 16.0473C129.153 15.9566 128.962 15.8787 128.754 15.8123C128.546 15.7459 128.312 15.6911 128.052 15.6484C127.792 15.6057 127.493 15.5841 127.153 15.5841C126.603 15.5841 126.105 15.67 125.66 15.8407C125.215 16.0114 124.836 16.2559 124.522 16.5736C124.208 16.8919 123.967 17.2738 123.797 17.7196C123.627 18.1659 123.542 18.6638 123.542 19.2144C123.542 19.8076 123.632 20.3356 123.812 20.7982C123.992 21.2608 124.244 21.6512 124.568 21.9689C124.892 22.2866 125.278 22.53 125.726 22.6987C126.173 22.8667 126.662 22.951 127.192 22.951Z" fill="#0B907B"/>
<path d="M140.261 14.0683V15.5915H135.315V18.4456H139.212V19.9188H135.315V22.8304H140.261V24.3604H133.224V14.0683H140.261Z" fill="#0B907B"/>
<path d="M84.7679 33.5108C84.8183 33.5108 84.8635 33.5298 84.9045 33.5677L85.2628 33.9287C84.986 34.2242 84.6506 34.455 84.256 34.6199C83.8618 34.7854 83.3862 34.8681 82.8296 34.8681C82.3425 34.8681 81.9007 34.7906 81.505 34.6352C81.1088 34.4803 80.7708 34.2627 80.4909 33.9829C80.211 33.7032 79.9945 33.3675 79.8403 32.9761C79.6861 32.5846 79.6092 32.1541 79.6092 31.6841C79.6092 31.2142 79.6918 30.7837 79.8569 30.3922C80.022 30.0007 80.2536 29.6646 80.5522 29.3832C80.8507 29.1019 81.2085 28.8837 81.6249 28.7283C82.0414 28.5734 82.5014 28.496 83.0041 28.496C83.501 28.496 83.9294 28.5671 84.2892 28.7088C84.649 28.8511 84.9689 29.0439 85.2488 29.2873L84.9518 29.6746C84.9294 29.7036 84.9045 29.7273 84.8765 29.7463C84.8479 29.7652 84.8069 29.7747 84.7534 29.7747C84.7129 29.7747 84.6698 29.761 84.6241 29.7331C84.5784 29.7057 84.5244 29.6714 84.4611 29.6309C84.3982 29.5903 84.3245 29.5471 84.2399 29.5007C84.1547 29.4544 84.054 29.4106 83.9377 29.3701C83.8214 29.3295 83.6863 29.2952 83.5321 29.2678C83.3784 29.2404 83.2008 29.2267 82.9994 29.2267C82.638 29.2267 82.3072 29.2836 82.0071 29.3985C81.707 29.5128 81.4484 29.6762 81.2313 29.8875C81.0143 30.0993 80.8455 30.3574 80.7246 30.662C80.6036 30.9665 80.5428 31.3074 80.5428 31.6841C80.5428 32.0724 80.6036 32.4191 80.7246 32.7237C80.8455 33.0282 81.0107 33.2853 81.2194 33.4956C81.4287 33.7058 81.6763 33.866 81.9624 33.9766C82.248 34.0867 82.5565 34.1415 82.8862 34.1415C83.0876 34.1415 83.2684 34.131 83.4288 34.1089C83.5887 34.0873 83.7377 34.053 83.8743 34.0066C84.0109 33.9603 84.1381 33.9018 84.256 33.8307C84.3738 33.7595 84.4927 33.6747 84.6122 33.5762C84.6656 33.533 84.7176 33.5108 84.7679 33.5108Z" fill="#0B907B"/>
<path d="M92.7415 31.6841C92.7415 32.151 92.661 32.5793 92.5011 32.9692C92.3407 33.3596 92.1143 33.6953 91.8219 33.9766C91.5296 34.2574 91.1781 34.4761 90.7678 34.631C90.3576 34.7864 89.9043 34.8639 89.4074 34.8639C88.911 34.8639 88.4582 34.7864 88.0496 34.631C87.6409 34.4761 87.2904 34.2574 86.9981 33.9766C86.7058 33.6953 86.4794 33.3596 86.3189 32.9692C86.159 32.5793 86.0785 32.151 86.0785 31.6841C86.0785 31.2173 86.159 30.789 86.3189 30.3991C86.4794 30.0086 86.7058 29.6725 86.9981 29.3896C87.2904 29.1071 87.6409 28.8874 88.0496 28.7309C88.4582 28.5739 88.911 28.496 89.4074 28.496C89.9043 28.496 90.3576 28.5739 90.7678 28.7309C91.1781 28.8874 91.5296 29.1071 91.8219 29.3896C92.1143 29.6725 92.3407 30.0086 92.5011 30.3991C92.661 30.789 92.7415 31.2173 92.7415 31.6841ZM91.8032 31.6841C91.8032 31.3016 91.7466 30.9576 91.6334 30.653C91.5202 30.349 91.3598 30.0914 91.1521 29.8811C90.9449 29.6709 90.6931 29.5092 90.3976 29.3964C90.1022 29.2831 89.7725 29.2267 89.4074 29.2267C89.046 29.2267 88.7179 29.2831 88.4219 29.3964C88.1264 29.5092 87.8746 29.6709 87.6653 29.8811C87.4561 30.0914 87.2951 30.349 87.1819 30.653C87.0687 30.9576 87.0121 31.3016 87.0121 31.6841C87.0121 32.0667 87.0687 32.4097 87.1819 32.7126C87.2951 33.0161 87.4561 33.2727 87.6653 33.4829C87.8746 33.6931 88.1264 33.8538 88.4219 33.9655C88.7179 34.0772 89.046 34.1331 89.4074 34.1331C89.7725 34.1331 90.1022 34.0772 90.3976 33.9655C90.6931 33.8538 90.9449 33.6931 91.1521 33.4829C91.3598 33.2727 91.5202 33.0161 91.6334 32.7126C91.7466 32.4097 91.8032 32.0667 91.8032 31.6841Z" fill="#0B907B"/>
<path d="M94.4623 28.5655C94.5443 28.5655 94.6046 28.575 94.644 28.594C94.6835 28.6124 94.7281 28.6509 94.7785 28.7088L98.6921 33.4065C98.6828 33.3312 98.6765 33.2579 98.6734 33.1868C98.6703 33.1157 98.6682 33.0472 98.6682 32.9803V28.5655H99.4699V34.7986H99.0078C98.9356 34.7986 98.8754 34.787 98.8266 34.7638C98.7778 34.7406 98.73 34.7016 98.6828 34.6463L94.7738 29.9528C94.7801 30.0255 94.7847 30.0966 94.7879 30.1662C94.791 30.2357 94.7925 30.2995 94.7925 30.3574V34.7986H93.9908V28.5655H94.4623Z" fill="#0B907B"/>
<path d="M105.723 28.5655V29.2742H103.539V34.7986H102.624V29.2742H100.432V28.5655H105.723Z" fill="#0B907B"/>
<path d="M107.689 32.1973V34.7986H106.779V28.5655H108.689C109.116 28.5655 109.485 28.6056 109.797 28.6851C110.108 28.7647 110.365 28.8801 110.567 29.0308C110.77 29.1814 110.92 29.3637 111.018 29.5766C111.115 29.79 111.164 30.0281 111.164 30.2921C111.164 30.5129 111.126 30.7184 111.051 30.9102C110.975 31.1014 110.866 31.2732 110.723 31.4254C110.58 31.5777 110.406 31.7073 110.2 31.8148C109.994 31.9218 109.76 32.0029 109.5 32.0582C109.612 32.1194 109.713 32.2073 109.801 32.3238L111.772 34.7986H110.961C110.795 34.7986 110.672 34.739 110.593 34.6199L108.839 32.3933C108.786 32.3238 108.728 32.2737 108.665 32.2432C108.602 32.2126 108.508 32.1973 108.382 32.1973H107.689ZM107.689 31.584H108.646C108.913 31.584 109.148 31.5545 109.351 31.495C109.554 31.4355 109.724 31.3512 109.86 31.2426C109.997 31.1341 110.1 31.0039 110.169 30.8532C110.238 30.7026 110.273 30.5361 110.273 30.3532C110.273 29.9818 110.14 29.702 109.874 29.5139C109.609 29.3253 109.214 29.231 108.689 29.231H107.689V31.584Z" fill="#0B907B"/>
<path d="M118.837 31.6841C118.837 32.151 118.756 32.5793 118.596 32.9692C118.436 33.3596 118.21 33.6953 117.917 33.9766C117.625 34.2574 117.273 34.4761 116.863 34.631C116.453 34.7864 116 34.8639 115.503 34.8639C115.006 34.8639 114.554 34.7864 114.145 34.631C113.736 34.4761 113.386 34.2574 113.093 33.9766C112.801 33.6953 112.575 33.3596 112.414 32.9692C112.254 32.5793 112.174 32.151 112.174 31.6841C112.174 31.2173 112.254 30.789 112.414 30.3991C112.575 30.0086 112.801 29.6725 113.093 29.3896C113.386 29.1071 113.736 28.8874 114.145 28.7309C114.554 28.5739 115.006 28.496 115.503 28.496C116 28.496 116.453 28.5739 116.863 28.7309C117.273 28.8874 117.625 29.1071 117.917 29.3896C118.21 29.6725 118.436 30.0086 118.596 30.3991C118.756 30.789 118.837 31.2173 118.837 31.6841ZM117.898 31.6841C117.898 31.3016 117.841 30.9576 117.729 30.653C117.616 30.349 117.455 30.0914 117.247 29.8811C117.04 29.6709 116.788 29.5092 116.493 29.3964C116.198 29.2831 115.868 29.2267 115.503 29.2267C115.141 29.2267 114.813 29.2831 114.517 29.3964C114.222 29.5092 113.969 29.6709 113.761 29.8811C113.551 30.0914 113.39 30.349 113.277 30.653C113.164 30.9576 113.107 31.3016 113.107 31.6841C113.107 32.0667 113.164 32.4097 113.277 32.7126C113.39 33.0161 113.551 33.2727 113.761 33.4829C113.969 33.6931 114.222 33.8538 114.517 33.9655C114.813 34.0772 115.141 34.1331 115.503 34.1331C115.868 34.1331 116.198 34.0772 116.493 33.9655C116.788 33.8538 117.04 33.6931 117.247 33.4829C117.455 33.2727 117.616 33.0161 117.729 32.7126C117.841 32.4097 117.898 32.0667 117.898 31.6841Z" fill="#0B907B"/>
<path d="M121.001 34.0894H123.924V34.7986H120.086V28.5655H121.001V34.0894Z" fill="#0B907B"/>
</svg>
