<svg width="17" height="18" viewBox="0 0 17 18" fill="none" xmlns="http://www.w3.org/2000/svg">
<path fill-rule="evenodd" clip-rule="evenodd" d="M8.49999 0.666666C8.96023 0.666666 9.33332 1.03976 9.33332 1.5V8.16667H16C16.4602 8.16667 16.8333 8.53976 16.8333 9C16.8333 9.46024 16.4602 9.83333 16 9.83333H9.33332V16.5C9.33332 16.9602 8.96023 17.3333 8.49999 17.3333C8.03975 17.3333 7.66666 16.9602 7.66666 16.5V9.83333H0.99999C0.539753 9.83333 0.166656 9.46024 0.166656 9C0.166656 8.53976 0.539753 8.16667 0.99999 8.16667H7.66666V1.5C7.66666 1.03976 8.03975 0.666666 8.49999 0.666666Z" fill="white"/>
</svg>
