<svg width="20" height="17" viewBox="0 0 20 17" fill="none" xmlns="http://www.w3.org/2000/svg">
<path fill-rule="evenodd" clip-rule="evenodd" d="M5.83333 2.33334C4.91286 2.33334 4.16667 3.07953 4.16667 4.00001C4.16667 4.92048 4.91286 5.66667 5.83333 5.66667C6.75381 5.66667 7.5 4.92048 7.5 4.00001C7.5 3.07953 6.75381 2.33334 5.83333 2.33334ZM2.5 4.00001C2.5 2.15906 3.99238 0.666672 5.83333 0.666672C7.67428 0.666672 9.16667 2.15906 9.16667 4.00001C9.16667 5.84095 7.67428 7.33334 5.83333 7.33334C3.99238 7.33334 2.5 5.84095 2.5 4.00001ZM13.75 4.83334C13.0596 4.83334 12.5 5.39298 12.5 6.08334C12.5 6.77369 13.0596 7.33334 13.75 7.33334C14.4404 7.33334 15 6.77369 15 6.08334C15 5.39298 14.4404 4.83334 13.75 4.83334ZM10.8333 6.08334C10.8333 4.47251 12.1392 3.16667 13.75 3.16667C15.3608 3.16667 16.6667 4.47251 16.6667 6.08334C16.6667 7.69417 15.3608 9 13.75 9C12.1392 9 10.8333 7.69417 10.8333 6.08334ZM0 14C0 10.7783 2.61167 8.16667 5.83333 8.16667C7.8631 8.16667 9.65073 9.20337 10.6956 10.7762C11.565 10.1817 12.6172 9.83334 13.75 9.83334C16.7415 9.83334 19.1667 12.2585 19.1667 15.25V16.5H0V14ZM11.6648 13.8494C11.6513 13.3162 11.5662 12.8008 11.4188 12.3124C12.0593 11.8033 12.8687 11.5 13.75 11.5C15.6802 11.5 17.2698 12.9584 17.4771 14.8333H11.6667V14C11.6667 13.9497 11.666 13.8995 11.6648 13.8494ZM10 14C10 13.9607 9.99946 13.9216 9.99838 13.8825C9.93618 11.6357 8.09523 9.83334 5.83333 9.83334C3.53215 9.83334 1.66667 11.6988 1.66667 14V14.8333H10V14Z" fill="#576473"/>
</svg>
